<mxfile host="65bd71144e">
    <diagram name="OpenEMR on Azure Architecture" id="azure-architecture">
        <mxGraphModel dx="997" dy="1139" grid="1" gridSize="10" guides="1" tooltips="1" connect="1" arrows="1" fold="1" page="1" pageScale="1" pageWidth="1169" pageHeight="827" math="0" shadow="0">
            <root>
                <mxCell id="0"/>
                <mxCell id="1" parent="0"/>
                <mxCell id="2" value="Internet" style="image;aspect=fixed;html=1;points=[];align=center;fontSize=12;image=img/lib/azure2/networking/DNS_Zones.svg;" parent="1" vertex="1">
                    <mxGeometry x="40" y="280" width="64" height="64" as="geometry"/>
                </mxCell>
                <mxCell id="3" value="Azure Front Door" style="image;aspect=fixed;html=1;points=[];align=center;fontSize=12;image=img/lib/azure2/networking/Front_Doors.svg;" parent="1" vertex="1">
                    <mxGeometry x="160" y="280" width="68" height="60" as="geometry"/>
                </mxCell>
                <mxCell id="5" value="Virtual Network" style="rounded=1;whiteSpace=wrap;html=1;fillColor=#f5f5f5;strokeColor=#666666;fontColor=#333333;dashed=1;" parent="1" vertex="1">
                    <mxGeometry x="280" y="160" width="680" height="440" as="geometry"/>
                </mxCell>
                <mxCell id="8" value="Azure Database&#xa;for MySQL" style="image;aspect=fixed;html=1;points=[];align=center;fontSize=12;image=img/lib/azure2/databases/Azure_Database_MySQL_Server.svg;" parent="1" vertex="1">
                    <mxGeometry x="600" y="280" width="48" height="64" as="geometry"/>
                </mxCell>
                <mxCell id="9" value="Storage Account&#xa;(Backups)" style="image;aspect=fixed;html=1;points=[];align=center;fontSize=12;image=img/lib/azure2/storage/Storage_Accounts.svg;" parent="1" vertex="1">
                    <mxGeometry x="720" y="280" width="64" height="64" as="geometry"/>
                </mxCell>
                <mxCell id="10" value="Application&#xa;Insights" style="image;aspect=fixed;html=1;points=[];align=center;fontSize=12;image=img/lib/azure2/devops/Application_Insights.svg;" parent="1" vertex="1">
                    <mxGeometry x="440" y="400" width="64" height="64" as="geometry"/>
                </mxCell>
                <mxCell id="11" value="Key Vault" style="image;aspect=fixed;html=1;points=[];align=center;fontSize=12;image=img/lib/azure2/security/Key_Vaults.svg;" parent="1" vertex="1">
                    <mxGeometry x="840" y="280" width="64" height="64" as="geometry"/>
                </mxCell>
                <!-- Container Apps Environment -->
                <mxCell id="30" value="Container Apps Environment" style="rounded=1;whiteSpace=wrap;html=1;fillColor=#e6f2ff;strokeColor=#0066cc;dashed=1;" vertex="1" parent="1">
                    <mxGeometry x="320" y="220" width="240" height="180" as="geometry"/>
                </mxCell>
                <!-- OpenEMR Container App -->
                <mxCell id="31" value="OpenEMR&#xa;Container App" style="image;aspect=fixed;html=1;points=[];align=center;fontSize=12;image=img/lib/azure2/containers/Container_Apps.svg;" vertex="1" parent="1">
                    <mxGeometry x="380" y="280" width="64" height="64" as="geometry"/>
                </mxCell>
                <!-- Container Registry -->
                <mxCell id="32" value="Container&#xa;Registry" style="image;aspect=fixed;html=1;points=[];align=center;fontSize=12;image=img/lib/azure2/containers/Container_Registries.svg;" vertex="1" parent="1">
                    <mxGeometry x="480" y="280" width="64" height="64" as="geometry"/>
                </mxCell>
                <!-- Connections -->
                <mxCell id="14" value="" style="endArrow=classic;html=1;exitX=1;exitY=0.5;exitDx=0;exitDy=0;entryX=0;entryY=0.5;entryDx=0;entryDy=0;" parent="1" source="2" target="3" edge="1">
                    <mxGeometry width="50" height="50" relative="1" as="geometry"/>
                </mxCell>
                <mxCell id="33" value="" style="endArrow=classic;html=1;exitX=1;exitY=0.5;exitDx=0;exitDy=0;entryX=0;entryY=0.5;entryDx=0;entryDy=0;" edge="1" parent="1" source="3" target="31">
                    <mxGeometry width="50" height="50" relative="1" as="geometry"/>
                </mxCell>
                <mxCell id="34" value="" style="endArrow=classic;html=1;exitX=1;exitY=0.5;exitDx=0;exitDy=0;entryX=0;entryY=0.5;entryDx=0;entryDy=0;" edge="1" parent="1" source="31" target="32">
                    <mxGeometry width="50" height="50" relative="1" as="geometry"/>
                </mxCell>
                <mxCell id="35" value="" style="endArrow=classic;html=1;exitX=1;exitY=0.5;exitDx=0;exitDy=0;entryX=0;entryY=0.5;entryDx=0;entryDy=0;" edge="1" parent="1" source="32" target="8">
                    <mxGeometry width="50" height="50" relative="1" as="geometry"/>
                </mxCell>
                <mxCell id="20" value="" style="endArrow=classic;html=1;exitX=1;exitY=0.5;exitDx=0;exitDy=0;entryX=0;entryY=0.5;entryDx=0;entryDy=0;" parent="1" source="8" target="9" edge="1">
                    <mxGeometry width="50" height="50" relative="1" as="geometry"/>
                </mxCell>
                <mxCell id="21" value="" style="endArrow=classic;html=1;exitX=0.5;exitY=1;exitDx=0;exitDy=0;entryX=0.5;entryY=0;entryDx=0;entryDy=0;" parent="1" source="31" target="10" edge="1">
                    <mxGeometry width="50" height="50" relative="1" as="geometry"/>
                </mxCell>
                <mxCell id="22" value="" style="endArrow=classic;html=1;exitX=1;exitY=0.5;exitDx=0;exitDy=0;entryX=0;entryY=0.5;entryDx=0;entryDy=0;" parent="1" source="9" target="11" edge="1">
                    <mxGeometry width="50" height="50" relative="1" as="geometry"/>
                </mxCell>
                <!-- Labels -->
                <mxCell id="23" value="SSL/TLS" style="text;html=1;align=center;verticalAlign=middle;resizable=0;points=[];autosize=1;" parent="1" vertex="1">
                    <mxGeometry x="110" y="270" width="60" height="20" as="geometry"/>
                </mxCell>
                <mxCell id="24" value="VNet Integration" style="text;html=1;align=center;verticalAlign=middle;resizable=0;points=[];autosize=1;" parent="1" vertex="1">
                    <mxGeometry x="520" y="270" width="100" height="20" as="geometry"/>
                </mxCell>
                <mxCell id="25" value="Automated Backups" style="text;html=1;align=center;verticalAlign=middle;resizable=0;points=[];autosize=1;" parent="1" vertex="1">
                    <mxGeometry x="648" y="414" width="120" height="20" as="geometry"/>
                </mxCell>
                <mxCell id="26" value="Monitoring" style="text;html=1;align=center;verticalAlign=middle;resizable=0;points=[];autosize=1;" parent="1" vertex="1">
                    <mxGeometry x="437" y="470" width="70" height="20" as="geometry"/>
                </mxCell>
                <mxCell id="27" value="OpenEMR on Azure Container Apps - Architecture Diagram" style="text;html=1;align=center;verticalAlign=middle;resizable=0;points=[];autosize=1;fontSize=24;fontStyle=1" parent="1" vertex="1">
                    <mxGeometry x="280" y="40" width="660" height="40" as="geometry"/>
                </mxCell>
                <!-- Container Apps Environment Label -->
                <mxCell id="36" value="Container Apps Environment" style="text;html=1;align=center;verticalAlign=middle;resizable=0;points=[];autosize=1;fontStyle=1" vertex="1" parent="1">
                    <mxGeometry x="350" y="230" width="180" height="20" as="geometry"/>
                </mxCell>
            </root>
        </mxGraphModel>
    </diagram>
</mxfile>